<?xml version="1.0" standalone="no"?>
<!DOCTYPE svg PUBLIC "-//W3C//DTD SVG 20010904//EN"
 "http://www.w3.org/TR/2001/REC-SVG-20010904/DTD/svg10.dtd">
<svg version="1.0" xmlns="http://www.w3.org/2000/svg"
 width="626.000000pt" height="640.000000pt" viewBox="0 0 626.000000 640.000000"
 preserveAspectRatio="xMidYMid meet">

<g transform="translate(0.000000,640.000000) scale(0.100000,-0.100000)"
fill="#000000" stroke="none">
<path d="M3054 6390 c-521 -41 -921 -291 -1093 -681 -23 -54 -43 -82 -67 -98
-53 -36 -161 -156 -211 -233 -92 -142 -213 -427 -252 -594 l-13 -52 -101 -27
c-56 -15 -108 -29 -114 -31 -7 -2 -13 -19 -13 -39 0 -42 -8 -43 -49 -9 -29 24
-32 25 -92 13 -60 -12 -61 -12 -55 -41 l6 -29 -31 22 -31 22 -162 -34 -161
-34 3 -28 3 -28 -38 17 c-48 22 -79 20 -162 -7 -221 -72 -361 -210 -406 -401
-58 -248 52 -647 270 -975 179 -267 434 -472 795 -637 54 -25 104 -46 109 -46
5 0 12 8 16 18 3 9 18 32 33 50 l28 33 2 -44 c3 -85 11 -92 119 -127 116 -37
264 -74 386 -95 49 -8 93 -17 98 -21 16 -10 10 6 -26 61 -80 126 -155 318
-177 454 -10 65 -16 81 -29 81 -10 0 -20 8 -22 18 -4 16 -5 16 -6 0 -1 -22
-12 -22 -54 -4 -103 44 -160 179 -188 444 -14 133 -8 231 16 287 l18 40 21
-80 c27 -97 46 -135 86 -169 31 -26 54 -31 84 -20 14 5 16 38 16 258 l0 251
68 56 c87 73 190 133 279 163 l71 24 28 -29 c34 -36 55 -36 159 -4 141 44 226
48 412 19 53 -8 86 11 104 60 12 33 13 34 90 40 102 9 691 10 761 1 50 -6 55
-9 64 -38 5 -17 21 -39 36 -51 26 -19 32 -19 95 -6 126 25 280 12 412 -35 49
-17 102 -20 116 -6 14 13 217 -67 300 -119 39 -23 85 -52 103 -62 l32 -20 0
-249 0 -249 24 -6 c72 -18 138 67 167 212 7 36 17 63 23 61 23 -7 55 -71 70
-137 20 -87 20 -175 1 -281 -42 -227 -132 -369 -238 -375 -23 -2 -45 -3 -48
-3 -3 -1 -12 -27 -19 -58 -29 -134 -122 -364 -190 -475 l-31 -49 48 6 c489 67
918 286 1209 615 251 284 432 679 485 1056 28 201 -58 354 -253 454 l-84 43
-62 -38 c-34 -21 -65 -35 -68 -32 -4 3 8 23 25 44 17 21 31 41 31 44 0 21
-337 78 -462 79 -65 0 -66 0 -87 -36 -24 -40 -35 -38 -51 12 l-12 35 -102 -7
-101 -6 -18 119 c-53 369 -194 689 -422 962 -69 82 -170 184 -226 227 -15 11
-37 40 -49 64 -154 306 -506 482 -990 495 -80 2 -195 0 -256 -5z m346 -10
c130 -12 252 -37 348 -70 95 -33 215 -91 247 -119 11 -10 46 -35 78 -56 68
-44 137 -122 180 -204 20 -38 72 -102 142 -174 83 -85 119 -131 148 -188 21
-40 43 -81 48 -89 5 -8 20 -42 34 -75 14 -33 29 -67 34 -75 29 -54 85 -303 72
-325 -3 -5 -6 -35 -7 -65 -2 -99 -47 -186 -80 -159 -18 15 -34 -2 -34 -37 0
-21 -26 -38 -84 -55 -37 -11 -111 8 -226 56 -47 20 -101 42 -120 50 -19 7 -96
42 -170 78 -180 87 -185 88 -201 43 -7 -20 -16 -36 -20 -36 -7 0 -25 77 -21
92 2 8 -184 70 -293 97 -260 65 -570 93 -812 74 l-82 -6 -3 -55 -3 -56 -39 51
c-35 47 -42 51 -70 47 -143 -23 -381 -72 -471 -97 -244 -66 -238 -66 -267 -8
-13 25 -26 48 -30 49 -13 6 -9 117 5 131 10 11 9 12 -2 6 -11 -6 -13 -4 -8 9
4 10 10 30 13 44 25 111 87 217 178 307 48 47 73 83 114 166 34 70 75 133 122
188 38 46 70 86 70 90 0 11 119 104 188 148 210 133 446 206 712 222 171 11
212 11 310 1z"/>
<path d="M2325 3940 c-122 -25 -257 -104 -312 -184 -18 -26 -33 -52 -33 -57 0
-21 21 -6 55 40 41 57 129 119 213 152 82 32 224 33 304 1 66 -27 144 -93 185
-157 37 -59 62 -61 32 -4 -52 102 -156 179 -276 204 -75 16 -108 17 -168 5z"/>
<path d="M3892 3939 c-56 -9 -136 -46 -189 -87 -31 -23 -113 -135 -113 -153 0
-23 22 -4 63 54 120 168 319 212 524 116 66 -31 159 -109 182 -153 8 -14 20
-26 28 -26 19 0 17 6 -17 55 -63 92 -178 163 -308 190 -74 16 -93 17 -170 4z"/>
<path d="M2312 3862 c-67 -24 -119 -66 -157 -127 -28 -45 -30 -56 -30 -139 0
-104 16 -147 75 -206 52 -52 104 -74 188 -78 66 -4 79 -1 137 27 106 52 158
136 159 256 0 53 -5 81 -22 117 -26 53 -97 123 -148 144 -59 25 -142 27 -202
6z m36 -78 c41 -29 19 -94 -33 -94 -24 0 -55 33 -55 57 0 17 36 53 53 53 7 0
23 -7 35 -16z m287 -255 c13 -41 -4 -86 -49 -127 -68 -62 -127 -67 -159 -13
l-17 28 45 18 c50 18 101 73 110 117 6 27 7 27 35 13 16 -8 32 -24 35 -36z"/>
<path d="M3885 3863 c-67 -24 -109 -55 -143 -106 -39 -58 -52 -99 -52 -171 0
-111 63 -206 168 -254 104 -47 251 -17 324 67 74 84 96 216 52 312 -59 128
-219 198 -349 152z m43 -79 c41 -29 19 -94 -33 -94 -24 0 -55 33 -55 57 0 7 9
22 20 33 24 24 38 25 68 4z m267 -237 c8 -12 15 -37 15 -56 0 -27 -9 -43 -48
-82 -60 -60 -110 -73 -148 -38 -34 32 -30 45 19 67 49 22 96 72 104 112 4 21
9 26 24 23 11 -3 26 -15 34 -26z"/>
<path d="M3065 2783 c-22 -2 -60 -6 -84 -9 l-43 -6 23 -24 c22 -24 23 -24 229
-24 194 0 208 1 225 20 10 11 16 22 13 25 -15 16 -251 28 -363 18z"/>
<path d="M2640 2430 c-217 -8 -320 -16 -320 -25 0 -2 3 -10 6 -19 5 -14 32
-16 196 -16 l191 0 44 -41 c92 -85 244 -131 433 -131 188 0 348 51 434 137
l35 35 195 0 c171 0 195 2 200 16 4 9 4 19 2 22 -19 18 -1066 34 -1416 22z"/>
<path d="M6170 2406 c-41 -19 -102 -49 -135 -68 -33 -19 -91 -48 -130 -63 -38
-16 -77 -35 -86 -42 -8 -7 -30 -13 -48 -13 -24 0 -34 6 -43 25 l-11 25 -18
-29 c-27 -44 -63 -65 -88 -51 -18 9 -21 20 -21 70 0 33 -3 60 -7 60 -5 0 -29
-18 -55 -40 -39 -34 -50 -52 -72 -118 -14 -42 -30 -96 -36 -119 -10 -39 -12
-41 -54 -45 l-44 -3 -7 42 c-9 61 -43 93 -99 93 -38 0 -54 -7 -117 -55 -40
-31 -78 -54 -83 -52 -6 2 -22 20 -35 40 l-25 38 -63 -63 c-35 -34 -63 -68 -63
-75 0 -18 -7 -16 -31 8 -15 15 -28 19 -47 14 -39 -9 -52 -32 -52 -94 l0 -54
-22 20 c-22 20 -61 43 -72 43 -3 0 -3 -20 1 -45 10 -74 -47 -134 -61 -64 -3
18 -25 50 -50 75 -40 41 -47 44 -97 44 -81 0 -149 -55 -149 -119 0 -25 9 -37
54 -70 58 -43 84 -72 48 -52 -11 6 -32 11 -45 11 -24 0 -24 -2 -16 -37 8 -38
34 -66 143 -156 25 -21 46 -42 46 -46 0 -5 -23 -6 -51 -3 -33 3 -54 1 -58 -7
-5 -8 -41 3 -122 40 l-114 51 -35 -18 -35 -19 -19 -143 c-19 -139 -19 -146 -2
-235 23 -119 62 -330 71 -384 l7 -42 -49 49 c-67 67 -162 88 -268 59 -120 -32
-273 -297 -380 -656 -19 -66 -35 -123 -35 -126 0 -4 9 -7 20 -7 17 0 20 7 20
41 0 47 38 167 104 324 67 161 85 193 144 256 64 70 137 109 202 109 58 0 80
-21 80 -76 0 -35 -61 -542 -75 -621 l-6 -33 816 0 815 0 0 84 c0 102 -24 185
-78 276 l-39 64 40 66 c87 143 162 220 214 220 12 0 55 -13 95 -29 40 -16 88
-32 106 -36 32 -7 33 -6 21 14 -7 11 -10 23 -7 26 4 4 50 -3 103 -15 52 -13
99 -19 103 -15 4 4 -11 22 -33 41 -38 33 -39 35 -21 49 10 8 39 17 65 20 92
12 108 15 127 30 26 20 7 31 -66 40 -53 6 -91 19 -80 28 3 2 29 18 58 36 80
51 106 114 52 126 -17 4 -28 11 -24 16 16 26 -149 -7 -226 -46 l-50 -25 0 28
c0 15 8 38 17 52 l17 24 -35 -21 c-71 -44 -95 -53 -150 -53 -43 0 -60 5 -74
20 -10 11 -16 21 -14 23 2 2 27 20 56 41 95 68 158 156 121 168 -7 3 10 14 38
27 187 86 279 144 305 193 15 29 8 30 -36 8 -39 -20 -65 -25 -65 -14 0 13 25
51 56 86 46 51 80 108 92 151 6 20 9 37 7 37 -1 0 -37 -16 -79 -35 -43 -19
-79 -35 -82 -35 -2 0 -4 50 -4 110 l0 111 -42 -29 c-76 -52 -212 -111 -225
-98 -2 2 26 20 62 41 36 21 72 46 81 56 16 17 15 18 -17 9 -48 -14 -69 -12
-69 6 0 9 -9 18 -20 21 -11 3 -20 9 -20 14 0 13 56 46 110 65 91 33 149 67
196 116 31 31 44 52 37 55 -7 3 -13 11 -13 19 0 8 -7 17 -15 20 -20 8 -19 20
11 84 16 35 47 75 87 113 34 31 57 57 52 56 -6 0 -44 -15 -85 -33z m-980 -416
c13 -25 -5 -62 -52 -109 -53 -53 -57 -53 -130 -9 -67 40 -67 40 -50 63 10 14
40 30 72 40 30 9 66 20 80 25 42 14 69 11 80 -10z m410 -340 c0 -18 -48 -88
-72 -104 -12 -9 -35 -16 -50 -16 l-27 0 16 45 c8 25 26 54 40 65 27 21 93 28
93 10z m-512 -391 c50 -16 41 -64 -13 -71 -26 -3 -30 -8 -33 -36 -3 -32 -4
-32 -40 -26 -23 4 -61 27 -99 58 -65 53 -67 66 -18 87 24 11 156 3 203 -12z
m-470 -59 c42 -30 72 -75 72 -106 0 -14 -7 -16 -37 -10 -21 3 -57 6 -80 6
l-43 0 0 54 c0 96 18 107 88 56z m311 -52 c18 -11 16 -13 -21 -30 -50 -22 -58
-23 -58 0 0 38 41 54 79 30z m-216 -118 c23 -11 55 -36 71 -56 27 -35 28 -39
24 -126 l-4 -89 -146 -292 c-130 -261 -152 -297 -200 -343 -83 -80 -105 -88
-232 -87 -62 1 -113 6 -119 12 -13 13 3 138 33 260 60 240 200 565 285 659 92
102 168 118 288 62z m444 -162 c54 -25 110 -78 129 -123 13 -33 13 -37 -11
-75 -14 -22 -25 -44 -25 -49 0 -20 -21 -21 -57 -2 -21 10 -57 24 -81 31 -41
11 -45 15 -83 93 -44 91 -47 107 -21 129 34 31 77 30 149 -4z m158 -419 c36
-40 37 -43 33 -108 -7 -113 -74 -215 -177 -268 -54 -29 -73 -33 -137 -33 l-74
0 0 30 c0 46 20 85 118 231 86 130 142 187 183 188 9 1 33 -18 54 -40z"/>
<path d="M3632 1524 c-156 -57 -275 -78 -447 -78 -156 1 -250 16 -408 66 -37
11 -70 18 -73 15 -3 -3 -8 -52 -11 -109 -5 -107 10 -227 45 -351 l17 -62 5
106 c5 91 10 111 33 152 25 42 33 48 95 67 37 12 112 28 167 37 160 24 421 6
528 -38 35 -15 72 -77 86 -147 14 -69 14 -179 0 -184 -6 -2 -12 -22 -13 -45
-2 -28 -12 -54 -31 -80 -23 -30 -24 -34 -6 -18 65 57 99 215 108 508 3 108 4
197 2 196 -2 0 -46 -16 -97 -35z"/>
<path d="M2275 1494 c-206 -37 -272 -54 -299 -75 -25 -19 -26 -26 -26 -112 0
-148 19 -558 35 -744 17 -202 38 -354 66 -475 l21 -88 214 0 214 0 0 48 c0 26
-7 144 -15 262 -20 295 -20 343 3 363 62 56 309 -27 434 -147 44 -42 67 -76
106 -157 56 -119 112 -281 115 -334 2 -26 6 -35 20 -35 9 0 17 6 17 14 0 52
-99 316 -173 462 -54 107 -227 234 -368 270 -85 22 -192 13 -267 -21 -30 -14
-56 -25 -57 -25 -2 0 -9 25 -15 56 -26 123 28 372 142 663 16 41 27 80 24 88
-7 17 -34 15 -191 -13z m-77 -506 c17 -17 15 -48 -8 -92 -10 -21 -22 -58 -26
-82 -7 -47 -24 -60 -24 -19 0 14 -4 25 -10 25 -5 0 -10 13 -10 29 0 16 -4 31
-9 33 -4 2 -11 20 -15 40 -5 30 -3 41 14 58 22 22 69 27 88 8z"/>
<path d="M2788 899 c8 -22 23 -44 33 -49 15 -8 15 -6 -2 28 -11 20 -17 42 -14
49 2 8 -3 13 -15 13 -18 0 -18 -2 -2 -41z"/>
<path d="M3102 520 c34 -52 83 -130 109 -173 l47 -79 7 44 c9 54 51 143 110
232 63 97 20 54 -56 -55 -79 -114 -87 -115 -166 -13 -99 128 -116 143 -51 44z"/>
</g>
</svg>
